<?xml version="1.0" standalone="no"?>
<!DOCTYPE svg PUBLIC "-//W3C//DTD SVG 20010904//EN"
 "http://www.w3.org/TR/2001/REC-SVG-20010904/DTD/svg10.dtd">
<svg version="1.0" xmlns="http://www.w3.org/2000/svg"
 width="400.000000pt" height="400.000000pt" viewBox="0 0 400.000000 400.000000"
 preserveAspectRatio="xMidYMid meet">
<metadata>
Created by potrace 1.14, written by Peter Selinger 2001-2017
</metadata>
<g transform="translate(0.000000,400.000000) scale(0.100000,-0.100000)"
fill="#000000" stroke="none">
<path d="M1724 3965 c-698 -102 -1284 -553 -1559 -1199 -154 -364 -195 -795
-111 -1191 142 -670 643 -1238 1291 -1462 360 -124 775 -141 1150 -47 493 124
938 457 1212 906 214 350 317 809 272 1216 -26 244 -85 453 -189 670 -103 214
-213 367 -394 548 -312 311 -697 501 -1134 559 -138 18 -412 18 -538 0z m844
-1285 l563 -940 -3 -55 -3 -56 -556 757 c-305 417 -560 759 -566 761 -6 2
-262 -339 -569 -758 l-559 -761 -3 54 -3 55 563 941 c310 518 565 941 568 941
3 0 258 -423 568 -939z m-1205 -1118 c67 -31 119 -79 633 -591 2 -3 132 122
287 277 255 253 289 284 352 314 64 30 78 33 165 33 86 0 101 -3 160 -31 36
-17 85 -49 110 -72 l45 -41 -560 -560 -560 -561 -553 553 c-307 307 -551 558
-550 567 6 27 121 110 183 130 91 30 201 23 288 -18z"/>
</g>
</svg>
